<?xml version="1.0" standalone="no"?>
<!DOCTYPE svg PUBLIC "-//W3C//DTD SVG 20010904//EN"
 "http://www.w3.org/TR/2001/REC-SVG-20010904/DTD/svg10.dtd">
<svg version="1.0" xmlns="http://www.w3.org/2000/svg"
 width="500.000000pt" height="500.000000pt" viewBox="0 0 500.000000 500.000000"
 preserveAspectRatio="xMidYMid meet">

<g transform="translate(0.000000,500.000000) scale(0.100000,-0.100000)"
fill="#000000" stroke="none">
<path d="M2423 3745 c-37 -65 -147 -391 -212 -627 -43 -158 -126 -515 -161
-693 -28 -138 -89 -489 -86 -492 1 -1 107 60 236 135 l235 137 3 730 c1 402 1
753 0 780 -3 44 -4 47 -15 30z"/>
<path d="M2510 3477 l0 -274 149 -122 c215 -175 416 -357 649 -585 111 -109
202 -196 202 -192 0 18 -189 378 -264 504 -83 138 -196 311 -269 412 -129 175
-369 457 -431 504 l-36 27 0 -274z"/>
<path d="M2103 3078 c-215 -328 -366 -614 -496 -933 -77 -189 -176 -499 -163
-512 2 -3 87 43 188 103 101 59 206 121 235 137 49 29 52 33 58 81 38 280 169
886 254 1171 16 55 28 101 27 103 -2 1 -48 -66 -103 -150z"/>
<path d="M2515 2873 c5 -180 11 -272 19 -279 6 -6 182 -109 391 -229 419 -241
862 -496 913 -527 17 -11 32 -17 32 -14 0 7 -115 152 -189 236 -108 124 -385
402 -580 582 -204 188 -566 498 -582 498 -7 0 -8 -86 -4 -267z"/>
<path d="M2785 2316 c-11 -7 -202 -118 -425 -246 -223 -129 -499 -288 -615
-355 -115 -67 -225 -130 -243 -139 -19 -10 -32 -19 -30 -21 5 -6 230 29 353
55 245 51 663 169 1000 283 214 73 448 158 458 167 9 8 -443 270 -464 269 -8
0 -23 -6 -34 -13z"/>
<path d="M3195 1984 c-303 -118 -778 -268 -1054 -333 -46 -11 -85 -22 -88 -25
-22 -22 763 -28 977 -8 275 27 715 106 775 139 11 6 -51 46 -225 146 -132 75
-241 137 -242 136 -2 0 -66 -25 -143 -55z"/>
<path d="M3039 1228 c-34 -12 -55 -58 -40 -87 7 -12 30 -30 51 -41 43 -22 48
-31 26 -49 -10 -8 -21 -9 -42 -1 -32 13 -54 7 -54 -14 0 -21 32 -36 77 -36 53
0 83 23 83 64 0 36 -15 54 -68 80 -42 22 -36 41 12 41 49 0 71 31 29 41 -15 3
-32 7 -38 8 -5 2 -22 -1 -36 -6z"/>
<path d="M1991 1129 c-24 -56 -45 -108 -48 -116 -3 -9 3 -13 21 -13 18 0 30 8
38 25 9 21 18 25 55 25 37 0 45 -4 53 -25 7 -18 17 -25 35 -25 14 0 25 1 25 3
0 2 -20 52 -44 112 -38 95 -47 110 -69 113 -22 3 -28 -6 -66 -99z m83 -16 c6
-20 4 -23 -18 -23 -30 0 -29 -2 -15 40 12 34 19 30 33 -17z"/>
<path d="M2216 1193 c8 -21 30 -73 47 -115 46 -112 60 -109 117 29 25 59 47
111 48 115 2 4 -10 8 -26 8 -27 0 -31 -5 -57 -75 -15 -41 -28 -75 -30 -75 -1
0 -15 34 -30 75 -25 70 -29 75 -56 75 l-29 0 16 -37z"/>
<path d="M2490 1115 l0 -115 25 0 25 0 0 115 0 115 -25 0 -25 0 0 -115z"/>
<path d="M2610 1115 l0 -115 24 0 c22 0 25 5 28 47 l3 47 35 -47 c29 -39 41
-46 68 -47 l33 0 -36 45 -37 44 21 27 c26 34 27 68 1 94 -16 16 -33 20 -80 20
l-60 0 0 -115z m100 60 c16 -19 -3 -45 -31 -45 -14 0 -19 7 -19 30 0 23 5 30
19 30 10 0 24 -7 31 -15z"/>
<path d="M2860 1115 l0 -115 25 0 25 0 0 115 0 115 -25 0 -25 0 0 -115z"/>
</g>
</svg>
