<?xml version="1.0" standalone="no"?>
<!DOCTYPE svg PUBLIC "-//W3C//DTD SVG 20010904//EN"
 "http://www.w3.org/TR/2001/REC-SVG-20010904/DTD/svg10.dtd">
<svg version="1.0" xmlns="http://www.w3.org/2000/svg"
 width="500.000000pt" height="500.000000pt" viewBox="0 0 500.000000 500.000000"
 preserveAspectRatio="xMidYMid meet">

<g transform="translate(0.000000,500.000000) scale(0.100000,-0.100000)"
fill="#000000" stroke="none">
<path d="M2510 3472 l0 -268 117 -94 c203 -163 431 -367 651 -584 127 -126
209 -200 203 -185 -17 46 -101 209 -179 349 -130 233 -318 514 -476 710 -94
117 -262 303 -295 326 l-21 15 0 -269z"/>
<path d="M2362 3598 c-76 -200 -180 -570 -252 -893 -70 -312 -148 -740 -137
-751 6 -6 419 230 443 253 10 11 13 161 11 768 -1 415 -4 755 -8 755 -3 0 -29
-60 -57 -132z"/>
<path d="M2093 3063 c-261 -399 -470 -832 -600 -1243 -49 -154 -56 -180 -45
-180 5 0 68 35 140 78 71 42 173 102 226 132 106 61 94 42 117 190 50 322 154
796 238 1084 12 38 19 71 17 73 -2 2 -44 -58 -93 -134z"/>
<path d="M2514 2959 c2 -96 5 -215 5 -265 l1 -91 153 -88 c83 -49 265 -154
402 -233 138 -80 365 -211 505 -293 140 -81 256 -146 258 -144 9 8 -151 197
-299 354 -258 275 -548 545 -877 820 -68 56 -130 105 -138 108 -13 5 -14 -20
-10 -168z"/>
<path d="M2420 2102 c-678 -389 -930 -536 -925 -540 9 -10 341 55 550 108 224
56 297 77 630 182 128 41 445 151 574 200 21 8 22 11 10 22 -12 12 -220 132
-394 227 l-50 28 -395 -227z"/>
<path d="M3160 1968 c-295 -113 -635 -221 -970 -307 -87 -22 -110 -32 -95 -38
11 -4 216 -8 455 -8 387 1 454 3 611 23 263 32 629 108 629 130 0 11 -445 262
-461 261 -8 0 -84 -28 -169 -61z"/>
</g>
</svg>
